# xmcd CD database file generated by OrangeCD 5.2
#
# Track frame offsets:
#	150
#	15087
#	31756
#	49299
#	63680
#	78621
#	92322
#	108004
#	123014
#	135647
#	150622
#
# Disc length: 2245 seconds
#
# Revision: 4
# Processed by: cddbd v1.5.1PL0 Copyright (c) Steve Scherf et al.
# Submitted via: OrangeCD 5.2
#
DISCID=7708c30b
DTITLE=Michelle Wright - For Me It's You
DYEAR=1996
DGENRE=Country
TTITLE0=Nobody's Girl
TTITLE1=The Answer Is Yes
TTITLE2=We've Tried Everything Else
TTITLE3=I'm Not Afraid
TTITLE4=What Love Looks Like
TTITLE5=Crank My Tractor
TTITLE6=You Owe Me
TTITLE7=For Me It's You
TTITLE8=Laid Back Stone Cold
TTITLE9=As Good As It Gets
TTITLE10=Love Has No Pride
EXTD=YEAR: 1996 ID3G: 2
EXTT0=
EXTT1=The answer is yes\n
EXTT2=\n
EXTT3=\n
EXTT4=\n
EXTT5=\n
EXTT6=\n
EXTT7=\n
EXTT8=\n
EXTT9=\n
EXTT10=\n
PLAYORDER=
